<svg
  xmlns="http://www.w3.org/2000/svg"
  viewBox="0 0 550 172"
  width="550"
  height="172"
>
  <style>
    path {
      fill: black;
    }
    @media (prefers-color-scheme: dark) {
      path {
        fill: white;
      }
    }
  </style>
  <g>
    <path
      d="M117.67 16.59h-54c-1.86 0-3.36 1.5-3.36 3.36V46.2c0 2.11-.89 4.11-2.46 5.52l-.1.09a7.438 7.438 0 0 1-4.96 1.9H20.24c-1.86 0-3.36 1.5-3.36 3.36v38.44c0 1.86 1.5 3.36 3.36 3.36h34.51c1.86 0 3.36-1.5 3.36-3.36V59.25c0-2.11.89-4.11 2.46-5.52a7.438 7.438 0 0 1 4.96-1.9h52.15c1.86 0 3.36-1.5 3.36-3.36V19.95a3.37 3.37 0 0 0-3.37-3.36z"
    ></path>
    <path
      d="M117.67 72.78h-34.5c-1.86 0-3.36 1.5-3.36 3.36v36.27c0 2.11-.89 4.11-2.46 5.52a7.438 7.438 0 0 1-4.96 1.9H20.24c-1.86 0-3.36 1.5-3.36 3.36v28.56c0 1.86 1.5 3.36 3.36 3.36h54c1.86 0 3.36-1.5 3.36-3.36v-26.3c0-2.11.89-4.11 2.46-5.52l.1-.09a7.438 7.438 0 0 1 4.96-1.9h32.54c1.86 0 3.36-1.5 3.36-3.36V76.13a3.337 3.337 0 0 0-3.35-3.35z"
    ></path>
  </g>
  <g>
    <path
      d="m221.7 58.08-5.35 10.82c-5.99-3.69-13.5-5.99-19.48-5.99-5.73 0-9.93 1.91-9.93 6.75 0 12.48 36.04 5.73 35.91 30.31 0 13.88-12.35 20.12-25.98 20.12-9.93 0-20.5-3.31-27.25-9.42l5.22-10.44c5.86 5.22 15.28 8.4 22.67 8.4 6.24 0 11.08-2.17 11.08-7.26 0-13.88-35.66-6.11-35.53-30.56 0-13.75 11.97-19.61 24.96-19.61 8.53 0 17.57 2.55 23.68 6.88zm55.68 53.23c-4.84 5.99-12.61 8.91-22.41 8.91-14.64 0-23.81-9.04-23.81-21.01 0-12.35 9.3-20.25 25.6-20.37h20.5V76.8c0-8.53-5.48-13.63-16.17-13.63-6.49 0-13.24 2.29-19.99 6.88l-5.98-10.19c9.42-5.6 16.3-8.53 29.16-8.53 17.45 0 27.25 8.91 27.38 23.81l.13 44.44H277.4v-8.27zm-.13-15.54v-6.24h-18.34c-9.55 0-14.01 2.55-14.01 9.04 0 6.11 4.97 10.06 13.12 10.06 10.45 0 18.47-5.47 19.23-12.86zm72.13 15.54c-4.84 5.99-12.61 8.91-22.41 8.91-14.64 0-23.81-9.04-23.81-21.01 0-12.35 9.3-20.25 25.6-20.37h20.5V76.8c0-8.53-5.48-13.63-16.17-13.63-6.49 0-13.24 2.29-19.99 6.88l-5.98-10.19c9.42-5.6 16.3-8.53 29.16-8.53 17.45 0 27.25 8.91 27.38 23.81l.13 44.44H349.4v-8.27zm-.12-15.54v-6.24h-18.34c-9.55 0-14.01 2.55-14.01 9.04 0 6.11 4.97 10.06 13.12 10.06 10.44 0 18.46-5.47 19.23-12.86zm76.33-37.69-5.35 10.82c-5.99-3.69-13.5-5.99-19.48-5.99-5.73 0-9.93 1.91-9.93 6.75 0 12.48 36.04 5.73 35.91 30.31 0 13.88-12.35 20.12-25.98 20.12-9.93 0-20.5-3.31-27.25-9.42l5.22-10.44c5.86 5.22 15.28 8.4 22.67 8.4 6.24 0 11.08-2.17 11.08-7.26 0-13.88-35.66-6.11-35.53-30.56 0-13.75 11.97-19.61 24.96-19.61 8.53 0 17.57 2.55 23.68 6.88z"
    ></path>
    <path
      d="M455.303 121.564c-3.968 0-7.68-.832-11.136-2.496-3.456-1.664-6.272-4.064-8.448-7.2l5.568-6.528c1.856 2.56 3.936 4.544 6.24 5.952 2.368 1.344 4.96 2.016 7.776 2.016 7.68 0 11.52-4.544 11.52-13.632V61.948h.006v-8.352h9.498v45.6c0 7.488-1.792 13.088-5.376 16.8-3.52 3.712-8.736 5.568-15.648 5.568z"
    ></path>
    <path
      d="M511.495 121.564q-7.68 0-14.688-2.304-7.008-2.4-11.04-6.144l3.552-7.488q3.84 3.36 9.792 5.568 5.952 2.208 12.384 2.208 5.856 0 9.504-1.344 3.648-1.344 5.376-3.648 1.728-2.4 1.728-5.376 0-3.456-2.304-5.568-2.208-2.112-5.856-3.36-3.552-1.344-7.872-2.304-4.32-.96-8.736-2.208-4.32-1.344-7.968-3.36-3.552-2.016-5.76-5.376-2.208-3.456-2.208-8.832 0-5.184 2.688-9.504 2.784-4.416 8.448-7.008 5.76-2.688 14.592-2.688 5.856 0 11.616 1.536t9.984 4.416l-3.168 7.68q-4.32-2.88-9.12-4.128-4.8-1.344-9.312-1.344-5.664 0-9.312 1.44-3.648 1.44-5.376 3.84-1.632 2.4-1.632 5.376 0 3.552 2.208 5.664 2.304 2.112 5.856 3.36 3.648 1.248 7.968 2.304 4.32.96 8.64 2.208 4.416 1.248 7.968 3.264 3.648 2.016 5.856 5.376 2.208 3.36 2.208 8.64 0 5.088-2.784 9.504-2.784 4.32-8.64 7.008-5.76 2.592-14.592 2.592z"
    ></path>
  </g>
</svg>
